<svg xmlns="http://www.w3.org/2000/svg" viewBox="0 0 48 32" width="48" height="32" role="img" aria-label="Pix">
  <rect width="48" height="32" rx="4" fill="#fff"/>
  <g fill="#32BCAD">
    <path d="M30.9 21.3a3 3 0 0 1-2.1-.9l-3-3a.6.6 0 0 0-.8 0l-3 3a3 3 0 0 1-2.1.9h-.6l3.8 3.8a3 3 0 0 0 4.3 0l3.8-3.8h-.3Z"/>
    <path d="M17.1 10.7a3 3 0 0 1 2.1.9l3 3a.6.6 0 0 0 .8 0l3-3a3 3 0 0 1 2.1-.9h.3L24.6 6.9a3 3 0 0 0-4.3 0l-3.8 3.8h.6Z"/>
    <path d="M33.1 13.8 30.8 11.5h-1.9a2 2 0 0 0-1.4.6l-3 3a1.6 1.6 0 0 1-2.2 0l-3-3a2 2 0 0 0-1.4-.6h-2L14.9 13.8a3 3 0 0 0 0 4.3l1.8 1.9h2a2 2 0 0 0 1.4-.6l3-3a1.6 1.6 0 0 1 2.2 0l3 3a2 2 0 0 0 1.4.6h1.9l2.3-2.3a3 3 0 0 0 0-4.3Z"/>
  </g>
</svg>
