<svg xmlns="http://www.w3.org/2000/svg" viewBox="0 0 48 32" width="48" height="32" role="img" aria-label="Visa">
  <rect width="48" height="32" rx="4" fill="#1434CB"/>
  <path fill="#fff" d="M20.4 21.2h-2.6l1.6-9.9h2.6l-1.6 9.9Zm9.5-9.6c-.5-.2-1.3-.4-2.3-.4-2.6 0-4.4 1.3-4.4 3.2 0 1.4 1.3 2.2 2.3 2.6 1 .5 1.3.8 1.3 1.2 0 .6-.8.9-1.5.9-1 0-1.6-.2-2.4-.5l-.4-.2-.4 2.2c.6.3 1.7.5 2.8.5 2.8 0 4.6-1.3 4.6-3.3 0-1.1-.7-2-2.2-2.6-.9-.5-1.5-.7-1.5-1.2 0-.4.5-.8 1.5-.8.8 0 1.4.2 1.9.4l.3.1.4-2.1ZM37 11.3h-2c-.6 0-1.1.2-1.4.8l-3.9 9.1h2.8s.4-1.2.5-1.5h3.4l.3 1.5h2.4l-2.1-9.9ZM34.3 17.7c.2-.6 1-2.7 1-2.7s.2-.6.4-1l.2.9.6 2.8h-2.2Zm-18.2-6.4-2.7 6.7-.3-1.5c-.5-1.7-2.1-3.6-3.9-4.5l2.5 9.1h2.8l4.2-9.8h-2.6Z"/>
  <path fill="#F7B600" d="M11.4 11.3H7.1l-.1.2c3.4.8 5.6 2.8 6.5 5.2l-.9-4.6c-.2-.6-.6-.8-1.2-.8Z"/>
</svg>
